<?xml version="1.0" encoding="UTF-8"?>
<svg version="1.1" xmlns="http://www.w3.org/2000/svg" width="667" height="208">
<path d="M0 0 C0.87454834 0.00016113 1.74909668 0.00032227 2.65014648 0.00048828 C10.94695179 0.1461135 18.27100695 1.72233797 25.25 6.375 C25.83483095 9.23417352 26.26860172 11.98756497 26.625 14.875 C28.35709814 26.62147932 31.58296274 34.10021131 41.25 41.375 C42.178125 42.055625 43.10625 42.73625 44.0625 43.4375 C47.67323834 46.63558253 49.00670252 49.42059934 49.60546875 54.23046875 C50.10772689 65.59236246 46.39208142 74.70286887 39.1171875 83.3515625 C31.01489792 92.13186795 20.22131482 99.48315169 7.98168945 100.57788086 C5.46291536 100.67899493 2.95822742 100.70411027 0.4375 100.6875 C-0.45251709 100.68186035 -1.34253418 100.6762207 -2.25952148 100.67041016 C-8.53174431 100.55422593 -13.99857563 100.04276827 -19.75 97.375 C-20.63558594 96.98441406 -21.52117187 96.59382813 -22.43359375 96.19140625 C-35.55346758 89.76794514 -43.71828318 79.21187481 -48.5625 65.625 C-52.43360289 52.80481809 -51.17947237 39.31024389 -45.625 27.125 C-38.92913246 14.89951212 -27.4575367 5.27059571 -14.109375 1.2890625 C-9.40514607 0.16631406 -4.82171881 -0.00833326 0 0 Z " fill="#E3C48F" transform="translate(95.75,53.625)"/>
<path d="M0 0 C-1.77578079 4.55095449 -3.81106966 8.95484044 -5.87890625 13.37890625 C-6.82930113 15.60090962 -7.5063701 17.64277857 -8 20 C-12.46583643 19.42745687 -16.44601961 18.24419579 -20.65625 16.71875 C-35.63087412 12.12653194 -52.08370562 15.24433647 -65.8125 22.125 C-81.65749815 31.36137887 -90.94713153 44.62940927 -96 62 C-99.81994789 76.79317398 -96.74108294 92.87101 -89.73046875 106.11328125 C-80.48795224 121.53138441 -66.68481002 131.53042509 -49.3125 136 C-32.38330027 139.21071029 -16.68879226 135.86573533 -2 127 C0.80669354 124.96370043 3.47792376 122.85833691 6.109375 120.6015625 C8 119 8 119 10 118 C7.29084505 129.7012437 7.29084505 129.7012437 5.375 133.75 C3.10731954 139.10997199 2.39549076 144.29507826 4 150 C-15.80530884 160.66439707 -38.0275196 162.64837975 -59.73046875 157.03515625 C-74.62214045 152.45191636 -86.08696852 145.04029715 -97 134 C-97.73992187 133.27039063 -98.47984375 132.54078125 -99.2421875 131.7890625 C-114.15837317 116.17640124 -120.43579158 95.01193154 -120.36645508 73.82666016 C-119.80044381 49.74992796 -109.26782075 29.2722002 -92.0390625 12.63671875 C-80.79102014 2.57093624 -65.96942928 -4.77910201 -51 -7 C-50.30003906 -7.10957031 -49.60007812 -7.21914063 -48.87890625 -7.33203125 C-32.21212169 -9.560211 -15.12666417 -7.56333209 0 0 Z " fill="#E3C48F" transform="translate(132,28)"/>
<path d="M0 0 C0.928125 0.78375 1.85625 1.5675 2.8125 2.375 C3.37582031 2.83648438 3.93914062 3.29796875 4.51953125 3.7734375 C13.72293423 11.99434212 18.43314953 24.79019187 19.12890625 36.90234375 C19.52192007 48.11826777 18.8870678 57.74909082 11.5 66.75 C9.2113855 69.18103901 6.93885599 71.03119631 4.125 72.8125 C-0.18620787 75.763935 -1.76519215 79.42588353 -3.1875 84.375 C-3.75265355 89.21984479 -3.75728482 94.00194702 -3.6875 98.875 C-3.6822934 99.53974335 -3.67708679 100.20448669 -3.67172241 100.88937378 C-3.54705306 114.45099194 -1.53074673 125.74625594 3.5625 138.3125 C5.76793015 143.77486569 6.96175353 148.51167877 5.8125 154.375 C3.62935374 158.74129252 1.03191497 161.89838687 -3.1875 164.375 C-8.28938388 165.7407893 -12.70502187 165.983532 -17.5625 163.75 C-21.93624705 161.19643859 -24.5750404 158.21237879 -26.1875 153.375 C-26.95359922 146.53976933 -25.40282844 141.20259994 -22.8125 134.9375 C-18.25389028 123.69848864 -16.81411655 113.46960591 -16.81689453 101.38818359 C-16.81249235 99.24627759 -16.77597249 97.10639122 -16.73828125 94.96484375 C-16.67451662 87.4662645 -16.79602407 81.64317505 -21.1875 75.375 C-23.51125239 73.05141812 -23.51125239 73.05141812 -26.125 71.3125 C-33.63208684 65.6269857 -37.64075042 59.78739085 -39.1875 50.375 C-40.5975025 34.18653647 -37.23019465 18.92701538 -27.234375 5.8125 C-19.65408112 -2.30498006 -10.31110219 -5.25664033 0 0 Z " fill="#E3C48F" transform="translate(172.1875,22.625)"/>
<path d="M0 0 C5.1920263 -0.07495152 10.38372787 -0.12897508 15.57617188 -0.16479492 C17.33729549 -0.17974968 19.09838274 -0.20012096 20.859375 -0.22631836 C49.09122555 -0.63535938 49.09122555 -0.63535938 59.52734375 9.48046875 C66.17684823 16.97802597 65.78974009 25.39191457 65.23388672 34.87109375 C64.47757473 41.75526968 60.93496683 46.41085471 56 51 C52.13836175 54.09076507 49.04077681 56 44 56 C51.49365493 68.36280398 59.56278441 80.26214365 68 92 C68.53447754 92.75925781 69.06895508 93.51851563 69.61962891 94.30078125 C70.13444824 95.01621094 70.64926758 95.73164062 71.1796875 96.46875 C71.63069824 97.10232422 72.08170898 97.73589844 72.54638672 98.38867188 C74.96712715 101.07205898 77.60010717 101.91203429 81 103 C81 105.64 81 108.28 81 111 C78.29057607 111.10861833 75.585561 111.18758577 72.875 111.25 C72.11445313 111.28351563 71.35390625 111.31703125 70.5703125 111.3515625 C64.2007257 111.46138296 61.0233034 109.82450489 56.30322266 105.41479492 C47.97170353 96.77946618 41.973509 85.95455507 35.54345703 75.8918457 C33.89617485 73.31989418 32.23767859 70.75545027 30.578125 68.19140625 C29.82647064 67.00243492 29.82647064 67.00243492 29.05963135 65.78944397 C28.34803864 64.69206154 28.34803864 64.69206154 27.62207031 63.57250977 C27.21096008 62.92903091 26.79984985 62.28555206 26.37628174 61.62257385 C24.77702272 59.73711988 23.25897916 58.95559632 21 58 C21.09348657 63.7843867 21.19956981 69.56835245 21.31738281 75.35229492 C21.35568847 77.32032931 21.39053855 79.2884341 21.421875 81.2565918 C21.46749111 84.08407772 21.52549098 86.91107834 21.5859375 89.73828125 C21.59748871 90.61962234 21.60903992 91.50096344 21.62094116 92.40901184 C21.64081085 93.22963608 21.66068054 94.05026031 21.68115234 94.89575195 C21.69447601 95.61745071 21.70779968 96.33914948 21.7215271 97.0827179 C21.90726155 99.32601629 21.90726155 99.32601629 24 102 C25.485 102.495 25.485 102.495 27 103 C27 105.64 27 108.28 27 111 C18.09 111 9.18 111 0 111 C0 108.36 0 105.72 0 103 C0.9590625 102.5978125 0.9590625 102.5978125 1.9375 102.1875 C4.33131686 101.11332248 4.33131686 101.11332248 5 98 C5.09628939 95.33381834 5.13643264 92.69401601 5.12939453 90.02783203 C5.13114685 89.21612549 5.13289917 88.40441895 5.13470459 87.56811523 C5.13911036 84.88132599 5.13618903 82.19460244 5.1328125 79.5078125 C5.13348604 77.64077746 5.13445648 75.7737425 5.13571167 73.90670776 C5.13718702 69.99101935 5.13503977 66.07535373 5.13037109 62.15966797 C5.1246818 57.14374025 5.12794877 52.12786613 5.13394356 47.11194038 C5.13756027 43.25490924 5.13640533 39.39789075 5.13381577 35.54085922 C5.13314916 33.69171009 5.13396561 31.8425598 5.13629532 29.99341202 C5.13883914 27.40589615 5.13495646 24.8184665 5.12939453 22.23095703 C5.13141876 21.46818451 5.13344299 20.70541199 5.13552856 19.91952515 C5.1205609 16.15440902 4.90690249 12.66063633 4 9 C2.68 9 1.36 9 0 9 C0 6.03 0 3.06 0 0 Z M21 12 C21 23.22 21 34.44 21 46 C33.54407738 46.72710573 33.54407738 46.72710573 43.78125 41.3125 C48.22205481 36.2851738 49.30173903 33.18290318 49.21484375 26.47265625 C48.8228401 21.96105056 46.87954803 19.83200489 43.6875 16.8125 C36.43537487 11.92153189 29.94730185 12.63909299 21 12 Z " fill="#050505" transform="translate(333,22)"/>
<path d="M0 0 C0 7.92 0 15.84 0 24 C-1.98 24 -3.96 24 -6 24 C-6.495 22.783125 -6.99 21.56625 -7.5 20.3125 C-9.88260628 15.53032938 -13.14606152 13.10608504 -18 11 C-29.86950076 7.91906469 -42.36531235 9.79151459 -53.01171875 15.66015625 C-63.73249855 22.78296629 -68.93035342 32.78066521 -71.6875 45.0625 C-73.21037246 59.3775011 -68.79657323 72.04683913 -59.8125 83.25 C-52.17451038 91.44317389 -42.19366641 96.71425966 -30.9921875 97.2421875 C-24.91264072 97.38649474 -19.68772091 97.45557528 -14 95 C-13.97531916 89.90967159 -13.95714918 84.81937785 -13.94506836 79.72900391 C-13.94003318 77.99657586 -13.93320468 76.26415208 -13.92456055 74.53173828 C-13.91245935 72.04458567 -13.90676362 69.55748913 -13.90234375 67.0703125 C-13.89718246 66.29317902 -13.89202118 65.51604553 -13.88670349 64.71536255 C-13.79671948 60.72829094 -13.79671948 60.72829094 -15 57 C-16.98 56.505 -16.98 56.505 -19 56 C-19 53.03 -19 50.06 -19 47 C-9.76 47 -0.52 47 9 47 C9 49.97 9 52.94 9 56 C7.68 56.33 6.36 56.66 5 57 C3.81308507 59.37382985 3.84427133 60.89178893 3.79467773 63.54150391 C3.77473251 64.48232819 3.75478729 65.42315247 3.73423767 66.39248657 C3.71752518 67.41023163 3.70081268 68.42797668 3.68359375 69.4765625 C3.6524221 71.03713882 3.6524221 71.03713882 3.62062073 72.62924194 C3.55510128 75.96109249 3.49622908 79.2930235 3.4375 82.625 C3.39431706 84.88021674 3.35070285 87.13542527 3.30664062 89.390625 C3.19941748 94.92699764 3.09765554 100.46345078 3 106 C1.56889036 106.48682608 0.13691839 106.97111764 -1.29541016 107.4543457 C-2.09274567 107.72430862 -2.89008118 107.99427155 -3.71157837 108.27241516 C-21.68507346 113.98694012 -44.03032611 112.7820209 -60.875 104.3125 C-74.27432377 96.26485809 -82.66655331 84.9573805 -87 70 C-90.60518399 54.08111351 -89.12228266 35.97973238 -80.5625 22 C-79.39687639 20.31796087 -78.21187143 18.64903053 -77 17 C-76.236875 15.9275 -75.47375 14.855 -74.6875 13.75 C-65.94546302 4.80465983 -54.34852246 -1.11191309 -42 -3 C-41.25621094 -3.12246094 -40.51242187 -3.24492187 -39.74609375 -3.37109375 C-26.36987495 -5.1560587 -13.09902511 -2.48989734 0 0 Z " fill="#030303" transform="translate(311,24)"/>
<path d="M0 0 C9.24 0 18.48 0 28 0 C28 2.97 28 5.94 28 9 C26.68 9.33 25.36 9.66 24 10 C22.39818837 13.20362326 22.81980984 16.69244334 22.79467773 20.21337891 C22.78477814 21.0622316 22.77487854 21.91108429 22.76467896 22.78565979 C22.73302083 25.59926538 22.70828951 28.41288788 22.68359375 31.2265625 C22.66302794 33.17427008 22.64203157 35.12197316 22.62062073 37.06967163 C22.56536148 42.2021521 22.51596921 47.33467311 22.46777344 52.46722412 C22.41758652 57.70214455 22.36188581 62.93700594 22.30664062 68.171875 C22.19901194 78.44786626 22.09757744 88.72390873 22 99 C26.60868123 98.93096323 31.21646895 98.84292114 35.82446289 98.73754883 C37.39076801 98.70437468 38.95719051 98.67631942 40.52368164 98.65356445 C42.78061763 98.61987884 45.03648526 98.56755951 47.29296875 98.51171875 C47.98899704 98.50532883 48.68502533 98.4989389 49.40214539 98.49235535 C53.74045061 98.36230511 56.57575358 97.70835692 60 95 C61.81587206 91.43310846 63.21403659 87.92981707 64 84 C65.98 84 67.96 84 70 84 C70 92.91 70 101.82 70 111 C46.9 111 23.8 111 0 111 C0 108.36 0 105.72 0 103 C0.639375 102.87625 1.27875 102.7525 1.9375 102.625 C2.9584375 102.315625 2.9584375 102.315625 4 102 C5.62563386 98.74873227 5.1290896 95.17462025 5.11352539 91.60302734 C5.11367142 90.73466751 5.11381744 89.86630768 5.1139679 88.97163391 C5.11326961 86.09304328 5.1054811 83.21451686 5.09765625 80.3359375 C5.09579177 78.34339432 5.09436801 76.35085069 5.09336853 74.35830688 C5.08954569 69.10740906 5.07971737 63.85653878 5.06866455 58.60565186 C5.05844543 53.25012586 5.05386983 47.89459543 5.04882812 42.5390625 C5.03809491 32.02602955 5.02102127 21.51301706 5 11 C2.525 10.01 2.525 10.01 0 9 C0 6.03 0 3.06 0 0 Z " fill="#0F0F0F" transform="translate(466,22)"/>
<path d="M0 0 C9.24 0 18.48 0 28 0 C28 2.97 28 5.94 28 9 C26.35 9 24.7 9 23 9 C22.05315683 13.81129313 21.83149891 18.50502166 21.79467773 23.39208984 C21.77982834 24.62235397 21.77982834 24.62235397 21.76467896 25.87747192 C21.7332458 28.5719317 21.70837889 31.26640907 21.68359375 33.9609375 C21.6630085 35.83566734 21.64201162 37.7103927 21.62062073 39.58511353 C21.56556231 44.50710411 21.51608178 49.42913545 21.46777344 54.35119629 C21.41743955 59.37869878 21.36181567 64.40614247 21.30664062 69.43359375 C21.19925771 79.2890122 21.09776902 89.14448182 21 99 C25.6085035 98.90617464 30.21649957 98.80001753 34.82446289 98.68261719 C36.39079081 98.64442591 37.95720349 98.60955606 39.52368164 98.578125 C41.780418 98.53225929 44.03657583 98.47430231 46.29296875 98.4140625 C46.98899704 98.40251129 47.68502533 98.39096008 48.40214539 98.37905884 C52.33117043 98.26082824 55.516362 97.8763278 59 96 C61.47650958 92.10834208 62.45765001 88.55573993 63 84 C65.31 84 67.62 84 70 84 C70 92.91 70 101.82 70 111 C46.9 111 23.8 111 0 111 C0 108.36 0 105.72 0 103 C0.639375 102.71125 1.27875 102.4225 1.9375 102.125 C4.15206079 101.17176549 4.15206079 101.17176549 5 99 C5.09836863 96.3001582 5.1362933 93.62612224 5.12939453 90.92602539 C5.13202301 89.67460503 5.13202301 89.67460503 5.13470459 88.39790344 C5.13911745 85.63113342 5.13618682 82.86442696 5.1328125 80.09765625 C5.13348577 78.17956022 5.13445598 76.26146427 5.13571167 74.34336853 C5.13718793 70.31915476 5.13503662 66.29496315 5.13037109 62.27075195 C5.12467769 57.10774754 5.12795081 51.94479514 5.13394356 46.78179264 C5.13755437 42.81932685 5.13640811 38.85687343 5.13381577 34.89440727 C5.13314774 32.99057446 5.13397059 31.08674053 5.13629532 29.18290901 C5.13882992 26.52303208 5.1349696 23.86323976 5.12939453 21.20336914 C5.13141876 20.41313354 5.13344299 19.62289795 5.13552856 18.80871582 C5.12307157 15.60657855 5.02016854 13.06050563 4 10 C2.68 9.67 1.36 9.34 0 9 C0 6.03 0 3.06 0 0 Z " fill="#0F0F0F" transform="translate(545,22)"/>
<path d="M0 0 C8.91 0 17.82 0 27 0 C27 2.97 27 5.94 27 9 C25.68 9 24.36 9 23 9 C23 39.36 23 69.72 23 101 C24.32 101.66 25.64 102.32 27 103 C27 105.64 27 108.28 27 111 C18.09 111 9.18 111 0 111 C0 108.36 0 105.72 0 103 C0.9590625 102.5978125 0.9590625 102.5978125 1.9375 102.1875 C4.33131686 101.11332248 4.33131686 101.11332248 5 98 C5.09636222 95.29277974 5.13642644 92.61152936 5.12939453 89.90429688 C5.13114685 89.07962418 5.13289917 88.25495148 5.13470459 87.4052887 C5.13910964 84.67642112 5.13618983 81.94761824 5.1328125 79.21875 C5.13348593 77.32450345 5.13445628 75.43025699 5.13571167 73.53601074 C5.13718682 69.56485166 5.13503994 65.59371506 5.13037109 61.62255859 C5.12467392 56.52796387 5.1279539 51.43342183 5.13394356 46.33882904 C5.13755409 42.42697756 5.13640831 38.5151386 5.13381577 34.60328674 C5.13314786 32.72457371 5.13397017 30.84585954 5.13629532 28.96714783 C5.13882987 26.34330221 5.13496984 23.71954235 5.12939453 21.09570312 C5.13141876 20.31638931 5.13344299 19.5370755 5.13552856 18.73414612 C5.12298895 15.55461458 5.01308977 13.03926932 4 10 C2.68 9.67 1.36 9.34 0 9 C0 6.03 0 3.06 0 0 Z " fill="#090909" transform="translate(624,22)"/>
<path d="M0 0 C8.91 0 17.82 0 27 0 C27 2.97 27 5.94 27 9 C25.68 9 24.36 9 23 9 C21.92350157 13.37090551 21.85203417 17.63381307 21.85473633 22.10742188 C21.85137772 22.9096669 21.8480191 23.71191193 21.84455872 24.53846741 C21.8350844 27.18191082 21.83310758 29.82529068 21.83203125 32.46875 C21.82881694 34.31050645 21.82545274 36.15226264 21.82194519 37.99401855 C21.81596325 41.85067334 21.8141044 45.70730575 21.81469727 49.56396484 C21.814799 54.50364749 21.80113101 59.44318675 21.78392506 64.38283539 C21.77280456 68.18496357 21.77077805 71.98705705 21.77130699 75.78919983 C21.77012756 77.61044307 21.76570785 79.43168722 21.75797462 81.25291443 C21.74817092 83.79957129 21.75105393 86.34591618 21.75708008 88.89257812 C21.74865082 90.01799767 21.74865082 90.01799767 21.74005127 91.16615295 C21.76418975 95.18313751 21.98745902 98.4707907 24 102 C25.485 102.495 25.485 102.495 27 103 C27 105.64 27 108.28 27 111 C18.09 111 9.18 111 0 111 C0 108.36 0 105.72 0 103 C0.9590625 102.5978125 0.9590625 102.5978125 1.9375 102.1875 C4.33131686 101.11332248 4.33131686 101.11332248 5 98 C5.09635631 95.2980518 5.13642692 92.62212558 5.12939453 89.92016602 C5.13114685 89.09709961 5.13289917 88.2740332 5.13470459 87.42602539 C5.13911012 84.7019643 5.13618939 81.97796801 5.1328125 79.25390625 C5.13348598 77.36205533 5.13445637 75.4702045 5.13571167 73.57835388 C5.13718694 69.61139096 5.1350398 65.64445054 5.13037109 61.67749023 C5.12467781 56.59196204 5.12795136 51.50648667 5.13394356 46.42096043 C5.13755709 42.51335757 5.13640686 38.60576722 5.13381577 34.69816399 C5.13314849 32.82306856 5.13396797 30.94797199 5.13629532 29.07287788 C5.13883436 26.45163081 5.13496333 23.83046922 5.12939453 21.20922852 C5.13141876 20.43350998 5.13344299 19.65779144 5.13552856 18.85856628 C5.12205739 15.43626343 5.081911 12.27033257 4 9 C2.68 9 1.36 9 0 9 C0 6.03 0 3.06 0 0 Z " fill="#070707" transform="translate(424,22)"/>
<path d="M0 0 C6 0 6 0 7.96630859 1.92773438 C8.52141113 2.80751953 9.07651367 3.68730469 9.6484375 4.59375 C10.26074219 5.54121094 10.87304688 6.48867187 11.50390625 7.46484375 C12.12136719 8.46644531 12.73882813 9.46804687 13.375 10.5 C14.01566406 11.50160156 14.65632812 12.50320312 15.31640625 13.53515625 C16.89652668 16.01146438 18.45076807 18.50425103 20 21 C20.33 14.07 20.66 7.14 21 0 C22.98 0 24.96 0 27 0 C27 10.89 27 21.78 27 33 C20 33 20 33 18.01196289 31.25585938 C17.5039917 30.45986328 16.99602051 29.66386719 16.47265625 28.84375 C15.90869141 27.98652344 15.34472656 27.12929687 14.76367188 26.24609375 C14.20228516 25.33988281 13.64089844 24.43367188 13.0625 23.5 C12.47404297 22.59378906 11.88558594 21.68757813 11.27929688 20.75390625 C9.83095788 18.51663463 8.41253121 16.26004994 7 14 C6.67 20.27 6.34 26.54 6 33 C4.02 33 2.04 33 0 33 C0 22.11 0 11.22 0 0 Z " fill="#E3C48F" transform="translate(580,152)"/>
<path d="M0 0 C15.24137931 0 15.24137931 0 20 3 C22.132203 5.33209703 22.96770224 6.82113173 23.0546875 9.99609375 C22.79476931 13.07555932 22.38263878 15.467633 20.5625 18 C19 19 19 19 17 19 C17.433125 19.84304687 17.86625 20.68609375 18.3125 21.5546875 C18.869375 22.65039062 19.42625 23.74609375 20 24.875 C20.556875 25.96554688 21.11375 27.05609375 21.6875 28.1796875 C23 31 23 31 23 33 C20.69 33 18.38 33 16 33 C15.16180842 31.37750059 14.3295884 29.75191503 13.5 28.125 C13.0359375 27.22007812 12.571875 26.31515625 12.09375 25.3828125 C11 23 11 23 11 21 C9.02 21 7.04 21 5 21 C5 24.96 5 28.92 5 33 C3.35 33 1.7 33 0 33 C0 22.11 0 11.22 0 0 Z M5 5 C5 8.63 5 12.26 5 16 C10.617863 16.51329263 10.617863 16.51329263 15.5625 14.3125 C17.22023463 12.08201673 17.22023463 12.08201673 17.0625 9.375 C16.19821567 6.83499908 16.19821567 6.83499908 13.8125 5.6875 C10.77292853 4.94449364 8.11764768 4.85499313 5 5 Z " fill="#E3C48F" transform="translate(488,152)"/>
<path d="M0 0 C15.24137931 0 15.24137931 0 20 3 C22.132203 5.33209703 22.96770224 6.82113173 23.0546875 9.99609375 C22.79476931 13.07555932 22.38263878 15.467633 20.5625 18 C19 19 19 19 17 19 C17.433125 19.84304687 17.86625 20.68609375 18.3125 21.5546875 C18.869375 22.65039062 19.42625 23.74609375 20 24.875 C20.556875 25.96554688 21.11375 27.05609375 21.6875 28.1796875 C23 31 23 31 23 33 C20.69 33 18.38 33 16 33 C15.16180842 31.37750059 14.3295884 29.75191503 13.5 28.125 C13.0359375 27.22007812 12.571875 26.31515625 12.09375 25.3828125 C11 23 11 23 11 21 C9.02 21 7.04 21 5 21 C5 24.96 5 28.92 5 33 C3.35 33 1.7 33 0 33 C0 22.11 0 11.22 0 0 Z M5 5 C5 8.63 5 12.26 5 16 C10.617863 16.51329263 10.617863 16.51329263 15.5625 14.3125 C17.22023463 12.08201673 17.22023463 12.08201673 17.0625 9.375 C16.19821567 6.83499908 16.19821567 6.83499908 13.8125 5.6875 C10.77292853 4.94449364 8.11764768 4.85499313 5 5 Z " fill="#E3C48F" transform="translate(225,152)"/>
<path d="M0 0 C2.81770554 2.72965224 2.78386644 5.11914046 3 8.9375 C1.02 8.9375 -0.96 8.9375 -3 8.9375 C-3.33 7.9475 -3.66 6.9575 -4 5.9375 C-6.97 5.4425 -6.97 5.4425 -10 4.9375 C-10.33 6.5875 -10.66 8.2375 -11 9.9375 C-10.25234375 10.25203125 -9.5046875 10.5665625 -8.734375 10.890625 C-7.74953125 11.31859375 -6.7646875 11.7465625 -5.75 12.1875 C-4.28820312 12.81398437 -4.28820312 12.81398437 -2.796875 13.453125 C0.11747084 14.99984486 1.95314667 16.3550215 4 18.9375 C4.73348174 22.00086489 4.57369881 24.84747871 4 27.9375 C1.80168636 30.96965675 0.55036806 31.75404398 -3 32.9375 C-7.65208823 33.47802835 -11.13602991 33.33021368 -15.4375 31.375 C-18.54954073 28.41476614 -19.19882037 26.10363408 -20 21.9375 C-17.69 21.9375 -15.38 21.9375 -13 21.9375 C-12.79375 22.576875 -12.5875 23.21625 -12.375 23.875 C-11.11142782 26.26051287 -11.11142782 26.26051287 -8 26.75 C-5.07613397 27.18479012 -5.07613397 27.18479012 -3 25.9375 C-3 24.2875 -3 22.6375 -3 20.9375 C-3.83144531 20.61136719 -4.66289062 20.28523438 -5.51953125 19.94921875 C-6.60621094 19.51222656 -7.69289063 19.07523438 -8.8125 18.625 C-9.89144531 18.19574219 -10.97039062 17.76648438 -12.08203125 17.32421875 C-14.7289342 16.06631976 -16.2534004 15.24488074 -18 12.9375 C-19.00305755 9.06856373 -19.3820015 6.84224039 -17.8125 3.125 C-13.25265267 -2.37826402 -6.35225284 -2.24975621 0 0 Z " fill="#E3C48F" transform="translate(330,153.0625)"/>
<path d="M0 0 C1.98 0 3.96 0 6 0 C6.01981934 0.7113208 6.03963867 1.4226416 6.06005859 2.15551758 C6.15524867 5.37488816 6.26495229 8.5936045 6.375 11.8125 C6.4059375 12.93205078 6.436875 14.05160156 6.46875 15.20507812 C6.50742187 16.27822266 6.54609375 17.35136719 6.5859375 18.45703125 C6.6173584 19.44678955 6.6487793 20.43654785 6.68115234 21.45629883 C6.83773433 24.24075094 6.83773433 24.24075094 9 27 C11.86076138 27.97868153 13.38702769 28.22135111 16.25 27.1875 C18.15074924 26.10600632 18.15074924 26.10600632 19 24 C19.15306901 22.18828902 19.24946661 20.3716206 19.31640625 18.5546875 C19.35830078 17.47832031 19.40019531 16.40195313 19.44335938 15.29296875 C19.48267578 14.16503906 19.52199219 13.03710938 19.5625 11.875 C19.60568359 10.73933594 19.64886719 9.60367188 19.69335938 8.43359375 C19.7996604 5.62252232 19.90169405 2.81136055 20 0 C21.98 0 23.96 0 26 0 C26.11686443 4.02058602 26.18747388 8.04073082 26.25 12.0625 C26.30027344 13.7630957 26.30027344 13.7630957 26.3515625 15.49804688 C26.43021999 22.24292672 26.14283343 26.56777642 22 32 C17.8928906 34.69895761 12.76696967 34.67979673 8 34 C4.5469338 32.30485841 2.59719634 31.18207281 0.85205078 27.7277832 C-0.09933047 24.68200018 -0.22799919 22.22992084 -0.1953125 19.04296875 C-0.18886719 17.93115234 -0.18242187 16.81933594 -0.17578125 15.67382812 C-0.15902344 14.52333984 -0.14226562 13.37285156 -0.125 12.1875 C-0.11597656 11.01767578 -0.10695313 9.84785156 -0.09765625 8.64257812 C-0.07413732 5.76150947 -0.04126852 2.88086011 0 0 Z " fill="#E3C48F" transform="translate(440,152)"/>
<path d="M0 0 C1.4540625 0.0309375 1.4540625 0.0309375 2.9375 0.0625 C7.2719861 10.96741749 11.3597548 21.88410718 14.9375 33.0625 C12.6275 33.0625 10.3175 33.0625 7.9375 33.0625 C7.2775 31.0825 6.6175 29.1025 5.9375 27.0625 C1.6475 26.7325 -2.6425 26.4025 -7.0625 26.0625 C-7.3925 28.0425 -7.7225 30.0225 -8.0625 32.0625 C-9.0625 33.0625 -9.0625 33.0625 -12.125 33.125 C-13.094375 33.104375 -14.06375 33.08375 -15.0625 33.0625 C-12.96791559 25.76546406 -10.5476001 18.62758103 -7.9375 11.5 C-7.57785156 10.50419922 -7.21820312 9.50839844 -6.84765625 8.48242188 C-6.33138672 7.06606445 -6.33138672 7.06606445 -5.8046875 5.62109375 C-5.4938623 4.76829834 -5.18303711 3.91550293 -4.86279297 3.03686523 C-3.59785053 -0.08381491 -3.5818917 0.07309983 0 0 Z M-1.0625 10.0625 C-1.56865298 11.33089526 -2.06719099 12.60233102 -2.5625 13.875 C-2.8409375 14.58269531 -3.119375 15.29039062 -3.40625 16.01953125 C-4.2154162 18.18091216 -4.2154162 18.18091216 -4.0625 21.0625 C-1.4225 21.0625 1.2175 21.0625 3.9375 21.0625 C2.9475 17.4325 1.9575 13.8025 0.9375 10.0625 C0.2775 10.0625 -0.3825 10.0625 -1.0625 10.0625 Z " fill="#E3C48F" transform="translate(545.0625,151.9375)"/>
<path d="M0 0 C1.4540625 0.0309375 1.4540625 0.0309375 2.9375 0.0625 C7.2719861 10.96741749 11.3597548 21.88410718 14.9375 33.0625 C12.6275 33.0625 10.3175 33.0625 7.9375 33.0625 C7.2775 31.0825 6.6175 29.1025 5.9375 27.0625 C1.9775 27.0625 -1.9825 27.0625 -6.0625 27.0625 C-7.0525 29.0425 -8.0425 31.0225 -9.0625 33.0625 C-11.0425 33.0625 -13.0225 33.0625 -15.0625 33.0625 C-12.96791559 25.76546406 -10.5476001 18.62758103 -7.9375 11.5 C-7.57785156 10.50419922 -7.21820313 9.50839844 -6.84765625 8.48242188 C-6.33138672 7.06606445 -6.33138672 7.06606445 -5.8046875 5.62109375 C-5.4938623 4.76829834 -5.18303711 3.91550293 -4.86279297 3.03686523 C-3.59785053 -0.08381491 -3.5818917 0.07309983 0 0 Z M-1.0625 10.0625 C-1.56865298 11.33089526 -2.06719099 12.60233102 -2.5625 13.875 C-2.8409375 14.58269531 -3.119375 15.29039062 -3.40625 16.01953125 C-4.2154162 18.18091216 -4.2154162 18.18091216 -4.0625 21.0625 C-1.4225 21.0625 1.2175 21.0625 3.9375 21.0625 C2.9475 17.4325 1.9575 13.8025 0.9375 10.0625 C0.2775 10.0625 -0.3825 10.0625 -1.0625 10.0625 Z " fill="#E3C48F" transform="translate(407.0625,151.9375)"/>
<path d="M0 0 C6.93 0 13.86 0 21 0 C21 1.65 21 3.3 21 5 C16.05 5 11.1 5 6 5 C6 7.97 6 10.94 6 14 C10.62 14 15.24 14 20 14 C20 15.65 20 17.3 20 19 C15.38 19 10.76 19 6 19 C6 22.3 6 25.6 6 29 C10.95 29 15.9 29 21 29 C21 30.32 21 31.64 21 33 C14.07 33 7.14 33 0 33 C0 22.11 0 11.22 0 0 Z " fill="#E3C48F" transform="translate(269,152)"/>
<path d="M0 0 C0.33 0 0.66 0 1 0 C1 1.98 1 3.96 1 6 C0.360625 6.12375 -0.27875 6.2475 -0.9375 6.375 C-1.618125 6.58125 -2.29875 6.7875 -3 7 C-4.18691493 9.37382985 -4.15572867 10.89178893 -4.20532227 13.54150391 C-4.22526749 14.48232819 -4.24521271 15.42315247 -4.26576233 16.39248657 C-4.28247482 17.41023163 -4.29918732 18.42797668 -4.31640625 19.4765625 C-4.3475779 21.03713882 -4.3475779 21.03713882 -4.37937927 22.62924194 C-4.44489872 25.96109249 -4.50377092 29.2930235 -4.5625 32.625 C-4.60568294 34.88021674 -4.64929715 37.13542527 -4.69335938 39.390625 C-4.80058252 44.92699764 -4.90234446 50.46345078 -5 56 C-6.43110964 56.48682608 -7.86308161 56.97111764 -9.29541016 57.4543457 C-10.09274567 57.72430862 -10.89008118 57.99427155 -11.71157837 58.27241516 C-29.68507346 63.98694012 -52.03032611 62.7820209 -68.875 54.3125 C-79.73812158 47.78810265 -89.08425557 38.31827936 -93 26 C-92.505 24.515 -92.505 24.515 -92 23 C-91.68289062 23.73863281 -91.36578125 24.47726563 -91.0390625 25.23828125 C-84.9400529 38.4977303 -75.73801227 48.64969908 -62 54 C-46.05782225 59.11172032 -27.21061608 58.34466025 -11 55 C-9.33345689 54.66604946 -7.66680711 54.33263037 -6 54 C-6.00999275 53.1300943 -6.00999275 53.1300943 -6.02018738 52.24261475 C-6.0865432 46.20818626 -6.13180159 40.17386137 -6.16479492 34.13916016 C-6.17988395 31.88683869 -6.20035755 29.63454661 -6.22631836 27.38232422 C-6.26269593 24.14543404 -6.2797253 20.90893225 -6.29296875 17.671875 C-6.30845261 16.66445251 -6.32393646 15.65703003 -6.33988953 14.61907959 C-6.34011612 13.67840637 -6.34034271 12.73773315 -6.34057617 11.76855469 C-6.35056892 10.52945343 -6.35056892 10.52945343 -6.36076355 9.26531982 C-5.90877969 6.42720604 -5.00021903 5.04313699 -3 3 C-2.01 3 -1.02 3 0 3 C0 2.01 0 1.02 0 0 Z " fill="#EDEDED" transform="translate(319,74)"/>
<path d="M0 0 C7.92 0 15.84 0 24 0 C24 1.65 24 3.3 24 5 C21.03 5 18.06 5 15 5 C15 14.24 15 23.48 15 33 C13.02 33 11.04 33 9 33 C9 23.76 9 14.52 9 5 C6.03 5 3.06 5 0 5 C0 3.35 0 1.7 0 0 Z " fill="#E3C48F" transform="translate(627,152)"/>
<path d="M0 0 C7.92 0 15.84 0 24 0 C24 1.65 24 3.3 24 5 C21.03 5 18.06 5 15 5 C15 14.24 15 23.48 15 33 C13.02 33 11.04 33 9 33 C9 23.76 9 14.52 9 5 C6.03 5 3.06 5 0 5 C0 3.35 0 1.7 0 0 Z " fill="#E3C48F" transform="translate(353,152)"/>
<path d="M0 0 C0.92941406 -0.020625 1.85882813 -0.04125 2.81640625 -0.0625 C10.93941591 -0.10845762 16.66951684 1.51697302 22.75 7.25 C24.75796384 10.30975443 24.75 11.39485886 24.75 15.25 C26.73 15.25 28.71 15.25 30.75 15.25 C30.75 15.91 30.75 16.57 30.75 17.25 C28.77 17.25 26.79 17.25 24.75 17.25 C24.255 16.033125 23.76 14.81625 23.25 13.5625 C20.86739372 8.78032938 17.60393848 6.35608504 12.75 4.25 C0.88049924 1.16906469 -11.61531235 3.04151459 -22.26171875 8.91015625 C-29.25022056 13.55326727 -33.22371656 18.98390832 -37.25 26.25 C-37.91 27.24 -38.57 28.23 -39.25 29.25 C-38.83404473 21.13887233 -33.04507765 14.33315765 -27.3828125 8.88671875 C-18.86683983 2.35156756 -10.44204522 0.05698251 0 0 Z " fill="#F0F0F0" transform="translate(280.25,30.75)"/>
<path d="M0 0 C2.9259766 0.32570393 4.54712123 0.53502111 6.63734436 2.68109131 C7.11159348 3.40991516 7.58584259 4.13873901 8.07446289 4.88964844 C8.62175552 5.71430603 9.16904816 6.53896362 9.73292542 7.38861084 C10.30703659 8.28646301 10.88114777 9.18431519 11.47265625 10.109375 C12.07758408 11.02833557 12.6825119 11.94729614 13.30577087 12.894104 C15.23900633 15.83697741 17.15120582 18.79283988 19.0625 21.75 C20.9816156 24.6899013 22.90491732 27.62701367 24.8299408 30.56304932 C26.02636667 32.39102886 27.21857868 34.22177519 28.40602112 36.05560303 C34.44101466 46.01659894 34.44101466 46.01659894 44 52 C49.29931987 52.74704069 54.65637585 52.8717017 60 53 C60 53.66 60 54.32 60 55 C57.29057607 55.10861833 54.585561 55.18758577 51.875 55.25 C51.11445313 55.28351563 50.35390625 55.31703125 49.5703125 55.3515625 C43.2007257 55.46138296 40.0233034 53.82450489 35.30322266 49.41479492 C26.97170353 40.77946618 20.973509 29.95455507 14.54345703 19.8918457 C12.89617485 17.31989418 11.23767859 14.75545027 9.578125 12.19140625 C9.07702209 11.3987587 8.57591919 10.60611115 8.05963135 9.78944397 C7.58523621 9.05785568 7.11084106 8.3262674 6.62207031 7.57250977 C6.21096008 6.92903091 5.79984985 6.28555206 5.37628174 5.62257385 C3.77702272 3.73711988 2.25897916 2.95559632 0 2 C0 1.34 0 0.68 0 0 Z " fill="#E8E8E8" transform="translate(354,78)"/>
<path d="M0 0 C0.33 1.32 0.66 2.64 1 4 C1.61875 4.103125 2.2375 4.20625 2.875 4.3125 C5 5 5 5 7 8 C7.18457316 10.86983044 7.25216782 13.64119262 7.22705078 16.51049805 C7.22734283 17.37900391 7.22763489 18.24750977 7.22793579 19.14233398 C7.22654147 22.01556356 7.21097544 24.88853442 7.1953125 27.76171875 C7.19158273 29.75283161 7.18873559 31.7439463 7.18673706 33.73506165 C7.17909775 38.97776347 7.15944666 44.22035462 7.1373291 49.4630127 C7.11687712 54.81191511 7.10773673 60.16083539 7.09765625 65.50976562 C7.07620108 76.00655906 7.0420615 86.50327033 7 97 C6.67 97 6.34 97 6 97 C5.67 67.96 5.34 38.92 5 9 C2.525 8.01 2.525 8.01 0 7 C0 4.69 0 2.38 0 0 Z " fill="#6E6E6E" transform="translate(466,24)"/>
<path d="M0 0 C1.32 0 2.64 0 4 0 C4 0.99 4 1.98 4 3 C3.360625 3.12375 2.72125 3.2475 2.0625 3.375 C1.381875 3.58125 0.70125 3.7875 0 4 C-1.60181163 7.20362326 -1.18019016 10.69244334 -1.20532227 14.21337891 C-1.21522186 15.0622316 -1.22512146 15.91108429 -1.23532104 16.78565979 C-1.26697917 19.59926538 -1.29171049 22.41288788 -1.31640625 25.2265625 C-1.33697206 27.17427008 -1.35796843 29.12197316 -1.37937927 31.06967163 C-1.43463852 36.2021521 -1.48403079 41.33467311 -1.53222656 46.46722412 C-1.58241348 51.70214455 -1.63811419 56.93700594 -1.69335938 62.171875 C-1.80098806 72.44786626 -1.90242256 82.72390873 -2 93 C-2.33 93 -2.66 93 -3 93 C-3.0695099 81.61261788 -3.12281639 70.22528624 -3.15543652 58.83773518 C-3.17109253 53.55003173 -3.1923298 48.26247343 -3.22631836 42.97485352 C-3.25891385 37.8720221 -3.2768535 32.76933031 -3.28463173 27.66640282 C-3.29017488 25.71954335 -3.30099925 23.77269153 -3.31719017 21.82589149 C-3.33896687 19.09901031 -3.34196681 16.3727061 -3.34057617 13.64575195 C-3.351362 12.84086334 -3.36214783 12.03597473 -3.3732605 11.20669556 C-3.34833247 6.68942624 -3.05189132 3.45957161 0 0 Z " fill="#333333" transform="translate(490,28)"/>
<path d="M0 0 C1.32 0 2.64 0 4 0 C4 0.99 4 1.98 4 3 C2.68 3 1.36 3 0 3 C-0.33 32.7 -0.66 62.4 -1 93 C-1.33 93 -1.66 93 -2 93 C-2.04631499 81.46494117 -2.08186498 69.92990441 -2.10362434 58.39477158 C-2.11406707 53.03870106 -2.12823528 47.68269409 -2.15087891 42.32666016 C-2.17258972 37.15900293 -2.18456494 31.99140689 -2.18975449 26.82370758 C-2.1934534 24.85091437 -2.20067633 22.87812456 -2.21146011 20.90535736 C-2.22595155 18.14483876 -2.22797892 15.38457388 -2.22705078 12.62402344 C-2.23783661 11.3972715 -2.23783661 11.3972715 -2.24884033 10.14573669 C-2.23480463 6.29463379 -2.19897582 3.25894711 0 0 Z " fill="#7F7F7F" transform="translate(647,28)"/>
<path d="M0 0 C1.32 0 2.64 0 4 0 C7.04145841 5.06806165 7.41944741 8.85298982 7.34057617 14.57568359 C7.34101425 15.41536682 7.34145233 16.25505005 7.34190369 17.12017822 C7.33982318 19.87983922 7.31652724 22.63888338 7.29296875 25.3984375 C7.28737017 27.31799996 7.28310131 29.23756672 7.28010559 31.15713501 C7.2686775 36.19765151 7.23922781 41.23790671 7.20599365 46.27832031 C7.17524887 51.42639634 7.16159084 56.57451478 7.14648438 61.72265625 C7.11435619 71.81521867 7.06318444 81.90758756 7 92 C6.67 92 6.34 92 6 92 C5.98969254 90.94177536 5.97938507 89.88355072 5.96876526 88.79325867 C5.8711032 78.83130517 5.76837593 68.86941514 5.66066074 58.90756512 C5.60544398 53.78581084 5.5520259 48.66405085 5.50268555 43.54223633 C5.4550237 38.60147387 5.40268012 33.66078136 5.34705925 28.72010231 C5.32664397 26.83303374 5.30792952 24.945946 5.29092598 23.05884361 C5.26686375 20.42026194 5.23681156 17.78181256 5.20532227 15.14331055 C5.1995668 14.3592836 5.19381134 13.57525665 5.18788147 12.76747131 C5.14462571 9.58884044 5.0124178 7.03725341 4 4 C1.98491642 3.26676204 1.98491642 3.26676204 0 3 C0 2.01 0 1.02 0 0 Z " fill="#333333" transform="translate(545,28)"/>
<path d="M0 0 C8.72667559 -0.44794723 17.35079242 -0.17107931 24.5 5.4375 C27.32151723 8.32955516 28.85872376 10.29338302 29.1953125 14.359375 C29.17210937 15.14828125 29.14890625 15.9371875 29.125 16.75 C29.10695313 17.54921875 29.08890625 18.3484375 29.0703125 19.171875 C29.04710937 19.77515625 29.02390625 20.3784375 29 21 C28.67 21 28.34 21 28 21 C27.92523438 20.33613281 27.85046875 19.67226563 27.7734375 18.98828125 C26.91875112 12.80598089 26.91875112 12.80598089 23.25 8 C17.93113761 4.72685392 12.77351054 3.68706743 6.625 2.875 C5.37976563 2.70742188 4.13453125 2.53984375 2.8515625 2.3671875 C1.91054688 2.24601562 0.96953125 2.12484375 0 2 C0 1.34 0 0.68 0 0 Z " fill="#DFDFDF" transform="translate(354,32)"/>
<path d="M0 0 C0.33 0 0.66 0 1 0 C1 1.98 1 3.96 1 6 C0.360625 6.12375 -0.27875 6.2475 -0.9375 6.375 C-1.9584375 6.684375 -1.9584375 6.684375 -3 7 C-4.16425976 9.32851952 -4.15457992 10.76280184 -4.20532227 13.35791016 C-4.22526749 14.25869293 -4.24521271 15.15947571 -4.26576233 16.08755493 C-4.28247482 17.06155243 -4.29918732 18.03554993 -4.31640625 19.0390625 C-4.33718735 20.03505463 -4.35796844 21.03104675 -4.37937927 22.05722046 C-4.44489042 25.24640854 -4.50376704 28.43568058 -4.5625 31.625 C-4.60568373 33.78386293 -4.64929797 35.9427173 -4.69335938 38.1015625 C-4.80057336 43.4009523 -4.90233685 48.70042606 -5 54 C-5.33 54 -5.66 54 -6 54 C-6.0760474 47.37979488 -6.12859863 40.75970235 -6.16479492 34.13916016 C-6.17988395 31.88683869 -6.20035755 29.63454661 -6.22631836 27.38232422 C-6.26269593 24.14543404 -6.2797253 20.90893225 -6.29296875 17.671875 C-6.30845261 16.66445251 -6.32393646 15.65703003 -6.33988953 14.61907959 C-6.34011612 13.67840637 -6.34034271 12.73773315 -6.34057617 11.76855469 C-6.34723801 10.94248718 -6.35389984 10.11641968 -6.36076355 9.26531982 C-5.90877969 6.42720604 -5.00021903 5.04313699 -3 3 C-2.01 3 -1.02 3 0 3 C0 2.01 0 1.02 0 0 Z " fill="#707070" transform="translate(319,74)"/>
<path d="M0 0 C0.33 0 0.66 0 1 0 C0.80062539 7.82998487 -1.30522045 12.9375807 -6.5703125 18.7265625 C-10.85550288 22.77257946 -15.3439715 24.5378974 -21 26 C-21.33 25.01 -21.66 24.02 -22 23 C-21.21496094 22.731875 -20.42992187 22.46375 -19.62109375 22.1875 C-12.37202945 19.48355454 -7.00775927 16.80850333 -3 10 C-1.69774818 6.71626429 -0.74261061 3.4513712 0 0 Z " fill="#DCDCDC" transform="translate(397,53)"/>
<path d="M0 0 C3.7232067 1.2410689 5.24140025 3.24140025 8 6 C12.34190511 9.28213228 16.06578297 9.52339357 21.3125 9.6875 C22.05306641 9.72166016 22.79363281 9.75582031 23.55664062 9.79101562 C25.37058164 9.87293554 27.18526353 9.93815822 29 10 C29 10.66 29 11.32 29 12 C26.29057607 12.10861833 23.585561 12.18758577 20.875 12.25 C20.11445313 12.28351563 19.35390625 12.31703125 18.5703125 12.3515625 C12.19911591 12.46141072 8.9473919 10.53499962 4.1015625 6.3671875 C0 2.22222222 0 2.22222222 0 0 Z " fill="#F8F8F8" transform="translate(385,121)"/>
<path d="M0 0 C2.375 0.25 2.375 0.25 5 1 C7.84547979 4.71275404 7.25196421 9.25466723 7.1953125 13.703125 C7.1924826 14.54091492 7.18965271 15.37870483 7.18673706 16.24188232 C7.17556349 18.91140163 7.15046421 21.5805825 7.125 24.25 C7.11496654 26.06249515 7.10584133 27.87499556 7.09765625 29.6875 C7.0756334 34.12512993 7.04112304 38.56250763 7 43 C6.67 43 6.34 43 6 43 C5.97494385 41.88963379 5.9498877 40.77926758 5.92407227 39.63525391 C5.83005085 35.52396681 5.72981743 31.41285077 5.62768555 27.30175781 C5.5843167 25.52087397 5.54264306 23.73994802 5.50268555 21.95898438 C5.4450301 19.40221452 5.3813223 16.84565702 5.31640625 14.2890625 C5.29969376 13.49005524 5.28298126 12.69104797 5.26576233 11.86782837 C5.24607009 7.80193632 5.24607009 7.80193632 4 4 C1.97536745 3.34786708 1.97536745 3.34786708 0 3 C0 2.01 0 1.02 0 0 Z " fill="#545454" transform="translate(292,77)"/>
<path d="M0 0 C-0.33 0.99 -0.66 1.98 -1 3 C-3.87109375 4.203125 -3.87109375 4.203125 -7.4375 5.25 C-8.61183594 5.60578125 -9.78617187 5.9615625 -10.99609375 6.328125 C-14 7 -14 7 -16 6 C-11.9039822 1.45876288 -6.09426446 -0.57133729 0 0 Z " fill="#E5E5E5" transform="translate(275,31)"/>
<path d="M0 0 C2.19921875 0.05859375 2.19921875 0.05859375 5 1 C6.93736733 3.1512081 8.34973388 5.57263355 9.8125 8.0625 C10.21919922 8.72572266 10.62589844 9.38894531 11.04492188 10.07226562 C12.04412578 11.7062579 13.02398816 13.35204973 14 15 C13.01 15 12.02 15 11 15 C9.31640625 12.6640625 9.31640625 12.6640625 7.5625 9.625 C4.76671101 4.70842268 4.76671101 4.70842268 0 2 C0 1.34 0 0.68 0 0 Z " fill="#F0F0F0" transform="translate(354,78)"/>
<path d="M0 0 C0 0.66 0 1.32 0 2 C-5.10334017 3.905247 -9.46342706 5.42589023 -15 5 C-14 3 -14 3 -11.85546875 2.1484375 C-10.97503906 1.89320313 -10.09460938 1.63796875 -9.1875 1.375 C-8.31480469 1.11460937 -7.44210937 0.85421875 -6.54296875 0.5859375 C-4 0 -4 0 0 0 Z " fill="#F4F4F4" transform="translate(314,128)"/>
<path d="M0 0 C-3.222107 3.8665284 -6.14922412 4.88059018 -11 6 C-11.33 5.01 -11.66 4.02 -12 3 C-10.3789897 2.30314502 -8.75303934 1.61777139 -7.125 0.9375 C-6.22007812 0.55464844 -5.31515625 0.17179687 -4.3828125 -0.22265625 C-2 -1 -2 -1 0 0 Z " fill="#E2E2E2" transform="translate(387,73)"/>
<path d="M0 0 C2.17303573 2.17303573 3.10961389 4.05330986 4.4375 6.8125 C6.150053 10.31360688 7.91201534 13.70318212 10 17 C6.97189452 15.94016308 6.03338055 15.05320983 4.296875 12.28515625 C3.78640625 11.22167969 3.2759375 10.15820312 2.75 9.0625 C2.22921875 8.00160156 1.7084375 6.94070312 1.171875 5.84765625 C0 3 0 3 0 0 Z " fill="#E5E5E5" transform="translate(226,97)"/>
<path d="M0 0 C0.33 0 0.66 0 1 0 C1 2.31 1 4.62 1 7 C-0.65 7 -2.3 7 -4 7 C-4.33 8.98 -4.66 10.96 -5 13 C-5.33 13 -5.66 13 -6 13 C-5.125 6.25 -5.125 6.25 -4 4 C-2.68 4 -1.36 4 0 4 C0 2.68 0 1.36 0 0 Z " fill="#CECECE" transform="translate(572,24)"/>
<path d="M0 0 C0.33 0 0.66 0 1 0 C1 1.98 1 3.96 1 6 C0.38125 6.12375 -0.2375 6.2475 -0.875 6.375 C-3.19120832 6.87197356 -3.19120832 6.87197356 -5 9 C-4.67 7.35 -4.34 5.7 -4 4 C-2.68 3.67 -1.36 3.34 0 3 C0 2.01 0 1.02 0 0 Z " fill="#CBCBCB" transform="translate(319,74)"/>
<path d="M0 0 C0.33 1.32 0.66 2.64 1 4 C2.98 4.495 2.98 4.495 5 5 C5.33 6.32 5.66 7.64 6 9 C4.02 8.34 2.04 7.68 0 7 C0 4.69 0 2.38 0 0 Z " fill="#D3D3D3" transform="translate(466,24)"/>
<path d="M0 0 C2.475 0.495 2.475 0.495 5 1 C5.33 2.98 5.66 4.96 6 7 C5.34 5.68 4.68 4.36 4 3 C2.68 3 1.36 3 0 3 C0 2.01 0 1.02 0 0 Z " fill="#DFDFDF" transform="translate(424,28)"/>
<path d="M0 0 C1.32 0 2.64 0 4 0 C6.1519437 3.22791555 6.20086443 4.28400809 6 8 C4 5 4 5 4 3 C2.68 3 1.36 3 0 3 C0 2.01 0 1.02 0 0 Z " fill="#E0E0E0" transform="translate(333,28)"/>
<path d="M0 0 C1.32 0 2.64 0 4 0 C4 0.99 4 1.98 4 3 C2.68 3 1.36 3 0 3 C-0.33 4.65 -0.66 6.3 -1 8 C-1.93065133 5.39417629 -2.14917407 4.35801776 -1.0625 1.75 C-0.711875 1.1725 -0.36125 0.595 0 0 Z " fill="#E3E3E3" transform="translate(447,28)"/>
<path d="M0 0 C2.475 0.495 2.475 0.495 5 1 C5.33 2.65 5.66 4.3 6 6 C5.34 5.34 4.68 4.68 4 4 C1.93125966 3.3574765 1.93125966 3.3574765 0 3 C0 2.01 0 1.02 0 0 Z " fill="#D7D7D7" transform="translate(292,77)"/>
<path d="M0 0 C1.32 0 2.64 0 4 0 C6 3 6 3 5.625 5.1875 C5.41875 5.785625 5.2125 6.38375 5 7 C4.67 6.01 4.34 5.02 4 4 C1.98491642 3.26676204 1.98491642 3.26676204 0 3 C0 2.01 0 1.02 0 0 Z " fill="#E6E6E6" transform="translate(624,28)"/>
<path d="M0 0 C1.32 0 2.64 0 4 0 C6 3 6 3 5.625 5.1875 C5.41875 5.785625 5.2125 6.38375 5 7 C4.67 6.01 4.34 5.02 4 4 C1.98491642 3.26676204 1.98491642 3.26676204 0 3 C0 2.01 0 1.02 0 0 Z " fill="#E5E5E5" transform="translate(545,28)"/>
<path d="M0 0 C1.32 0 2.64 0 4 0 C4 0.99 4 1.98 4 3 C3.071875 3.185625 3.071875 3.185625 2.125 3.375 C-0.19120832 3.87197356 -0.19120832 3.87197356 -2 6 C-1.125 1.125 -1.125 1.125 0 0 Z " fill="#E4E4E4" transform="translate(490,28)"/>
</svg>
